<svg xmlns="http://www.w3.org/2000/svg" viewBox="0 0 100 100">
  <defs>
    <linearGradient id="leafGrad" x1="0%" y1="0%" x2="100%" y2="100%">
      <stop offset="0%" style="stop-color:#2e7d32;stop-opacity:1" />
      <stop offset="100%" style="stop-color:#81c784;stop-opacity:1" />
    </linearGradient>
  </defs>
  <!-- Leaf shape -->
  <path d="M50 10 Q70 30 70 50 Q70 70 50 90 Q30 70 30 50 Q30 30 50 10" fill="url(#leafGrad)"/>
  <!-- Vein -->
  <line x1="50" y1="15" x2="50" y2="85" stroke="#1b5e20" stroke-width="2"/>
  <path d="M50 30 Q40 35 35 40" stroke="#1b5e20" stroke-width="1.5" fill="none"/>
  <path d="M50 40 Q40 45 37 50" stroke="#1b5e20" stroke-width="1.5" fill="none"/>
  <path d="M50 50 Q40 55 37 60" stroke="#1b5e20" stroke-width="1.5" fill="none"/>
  <path d="M50 60 Q40 65 37 70" stroke="#1b5e20" stroke-width="1.5" fill="none"/>
  <path d="M50 30 Q60 35 65 40" stroke="#1b5e20" stroke-width="1.5" fill="none"/>
  <path d="M50 40 Q60 45 63 50" stroke="#1b5e20" stroke-width="1.5" fill="none"/>
  <path d="M50 50 Q60 55 63 60" stroke="#1b5e20" stroke-width="1.5" fill="none"/>
  <path d="M50 60 Q60 65 63 70" stroke="#1b5e20" stroke-width="1.5" fill="none"/>
</svg>
